<?xml version="1.0" standalone="no"?><!DOCTYPE svg PUBLIC "-//W3C//DTD SVG 1.1//EN" "http://www.w3.org/Graphics/SVG/1.1/DTD/svg11.dtd"><svg t="1567150303383" class="icon" viewBox="0 0 1024 1024" version="1.1" xmlns="http://www.w3.org/2000/svg" p-id="14532" width="16" height="16" xmlns:xlink="http://www.w3.org/1999/xlink"><defs><style type="text/css"></style></defs><path d="M512 512m-512 0a512 512 0 1 0 1024 0 512 512 0 1 0-1024 0Z" fill="#FFFFFF" p-id="14533"></path><path d="M783.423346 391.091985l0.413125-0.275417-300.755245-62.519634-242.504572 95.156536h-0.137708l-76.290479 130.823023 320.034427 84.277568 91.025282-134.128025-229.835395-55.634212 241.402905 58.250672 130.960731-77.254438-131.09844 77.805272 74.500269 125.314685 218.956429-129.170522-96.671329-112.645508z" fill="#D1DFF3" p-id="14534"></path><path d="M575.345885 502.360409l3.442711 348.264658" fill="#175FC1" p-id="14535"></path><path d="M279.135019 417.945132l316.729424 77.254438 20.656267-12.531469c-142.115116-47.509414-173.237224-107.412587-165.250134-138.810113z" fill="#ACC5E9" p-id="14536"></path><path d="M476.746638 148.862829h38.007531v111.68155h-38.007531zM652.600323 164.010758l-56.047338 96.671329 31.672943 16.938139 56.047337-96.671329-31.672942-16.938139zM289.050027 206.700377l65.273803 90.612157 30.295858-21.069393-65.136095-90.612157-30.433566 21.069393zM893.176977 492.445401l-94.054868-110.166757a17.213556 17.213556 0 0 0-11.842927-9.088757l-300.755244-61.693384a17.213556 17.213556 0 0 0-9.7773 0.826251L234.104357 407.47929a17.213556 17.213556 0 0 0-3.855836 2.341044h-0.826251a92.402367 92.402367 0 0 0-3.58042 4.131253l-76.428187 130.823023a17.213556 17.213556 0 0 0 10.465842 25.338354l63.483593 16.662722v181.224314a17.213556 17.213556 0 0 0 12.393761 16.525013l338.762775 97.359871a17.213556 17.213556 0 0 0 13.770845-1.514793l213.44809-119.806347a17.213556 17.213556 0 0 0 8.813341-15.147929l-2.203335-179.984938 80.697149-47.647122a17.213556 17.213556 0 0 0 4.268961-26.026896zM484.596019 346.199032l252.006455 52.329209-27.541689 15.97418-125.72781 74.087143-234.104357-56.598171-52.32921-12.669177zM190.45078 543.397526l58.526089-100.11404 91.3007 22.033351 206.562668 50.125874-70.231307 103.419043z m67.614847 212.484131V596.690694l222.123722 58.526089a17.213556 17.213556 0 0 0 18.59064-7.02313l60.178591-88.684239 2.754169 283.541689z m337.798816 81.385691l-2.754169-285.19419 53.293169 89.648198a17.213556 17.213556 0 0 0 23.548144 6.059171l104.107585-61.417966 1.790209 149.964497z m71.332975-227.907477l-57.011296-95.70737 116.225927-68.854222 53.293169-31.672943L853.792361 499.330823z" fill="#175FC1" p-id="14537"></path></svg>